<svg xmlns="http://www.w3.org/2000/svg" viewBox="0 0 1024 1024" width="1024" height="1024">
<title>OfferCeylon</title>
<defs>
  <radialGradient id="f-bg" cx="50%" cy="40%" r="78%">
    <stop offset="0" stop-color="#1C2E5E"/><stop offset="1" stop-color="#0A1330"/>
  </radialGradient>
  <linearGradient id="f-goldStroke" x1="0" y1="0" x2="0" y2="520" gradientUnits="userSpaceOnUse">
    <stop offset="0" stop-color="#FFE49B"/><stop offset="1" stop-color="#E09A28"/>
  </linearGradient>
  <linearGradient id="f-letterGold" x1="0" y1="-1" x2="0" y2="1" gradientUnits="objectBoundingBox">
    <stop offset="0" stop-color="#FFE29A"/><stop offset="1" stop-color="#E8961F"/>
  </linearGradient>
  <linearGradient id="f-cardOrange" x1="0" y1="0" x2="0.6" y2="1">
    <stop offset="0" stop-color="#D95A26"/><stop offset="1" stop-color="#8A2E0E"/>
  </linearGradient>
  <linearGradient id="f-cardNavy" x1="0" y1="0" x2="0.6" y2="1">
    <stop offset="0" stop-color="#27395F"/><stop offset="1" stop-color="#0F1B3D"/>
  </linearGradient>
  <linearGradient id="f-mapFill" x1="0" y1="0" x2="0" y2="520" gradientUnits="userSpaceOnUse">
    <stop offset="0" stop-color="#1D2F5E"/><stop offset="1" stop-color="#101C40"/>
  </linearGradient>
  <linearGradient id="f-sheen" x1="0" y1="0" x2="1" y2="1">
    <stop offset="0" stop-color="#FFFFFF" stop-opacity="0.16"/>
    <stop offset="0.45" stop-color="#FFFFFF" stop-opacity="0"/>
  </linearGradient>
  <linearGradient id="f-tGold" x1="0" y1="-80" x2="0" y2="4" gradientUnits="userSpaceOnUse">
    <stop offset="0" stop-color="#FFD87E"/><stop offset="1" stop-color="#E8891B"/>
  </linearGradient>
  <linearGradient id="f-tGreen" x1="0" y1="-80" x2="0" y2="4" gradientUnits="userSpaceOnUse">
    <stop offset="0" stop-color="#3FCB8D"/><stop offset="1" stop-color="#118A58"/>
  </linearGradient>
  <filter id="f-blurS" x="-120%" y="-120%" width="340%" height="340%">
    <feGaussianBlur stdDeviation="3"/>
  </filter>
  <filter id="f-outGlow" x="-15%" y="-15%" width="130%" height="130%">
    <feGaussianBlur stdDeviation="5"/>
  </filter>
  <filter id="f-cardShadow" x="-35%" y="-35%" width="170%" height="170%">
    <feDropShadow dx="0" dy="9" stdDeviation="10" flood-color="#04091C" flood-opacity="0.55"/>
  </filter>
</defs>
<rect width="1024" height="1024" rx="56" fill="url(#f-bg)"/>
<g transform="translate(316,52) scale(0.98)"><g transform="translate(30,20) scale(1.08)"><path d="M92,52 C88,30 98,12 114,10 C130,8 142,16 140,30
C138,40 128,44 120,40 C132,62 150,88 164,114
C182,148 204,180 216,218 C230,262 242,308 246,352
C250,396 240,440 218,472 C198,500 164,516 132,512
C102,508 76,490 62,462 C46,428 42,388 44,348
C46,308 52,272 56,236 C60,208 56,186 46,170
C38,148 44,120 58,100 C70,82 84,70 92,52 Z" fill="url(#f-mapFill)" fill-opacity="0.9"/>
<path d="M140,30L140,130M92,52L140,130M164,114L140,130M140,130L175,205M140,130L105,215M164,114L175,205M56,236L105,215M105,215L175,205M105,215L135,290M175,205L216,218M175,205L135,290M216,218L200,330M175,205L200,330M135,290L200,330M135,290L95,330M44,348L95,330M135,290L150,400M200,330L150,400M200,330L246,352M95,330L150,400M95,330L105,455M150,400L105,455M150,400L175,455M246,352L175,455M105,455L62,462M105,455L132,512M175,455L132,512M175,455L218,472M95,330L105,215M44,348L105,455" stroke="#F0B75A" stroke-opacity="0.32" stroke-width="1.5" fill="none"/>
<path d="M92,52 C88,30 98,12 114,10 C130,8 142,16 140,30
C138,40 128,44 120,40 C132,62 150,88 164,114
C182,148 204,180 216,218 C230,262 242,308 246,352
C250,396 240,440 218,472 C198,500 164,516 132,512
C102,508 76,490 62,462 C46,428 42,388 44,348
C46,308 52,272 56,236 C60,208 56,186 46,170
C38,148 44,120 58,100 C70,82 84,70 92,52 Z" fill="none" stroke="url(#f-goldStroke)" stroke-width="9" opacity="0.8" filter="url(#f-outGlow)"/>
<path d="M92,52 C88,30 98,12 114,10 C130,8 142,16 140,30
C138,40 128,44 120,40 C132,62 150,88 164,114
C182,148 204,180 216,218 C230,262 242,308 246,352
C250,396 240,440 218,472 C198,500 164,516 132,512
C102,508 76,490 62,462 C46,428 42,388 44,348
C46,308 52,272 56,236 C60,208 56,186 46,170
C38,148 44,120 58,100 C70,82 84,70 92,52 Z" fill="none" stroke="url(#f-goldStroke)" stroke-width="5" stroke-linejoin="round"/>
<circle cx="140" cy="30" r="10.08" fill="#F5B942" opacity="0.5" filter="url(#f-blurS)"/><circle cx="140" cy="30" r="4.2" fill="#FFF3C9" opacity="1"/><circle cx="164" cy="114" r="6.72" fill="#F5B942" opacity="0.28" filter="url(#f-blurS)"/><circle cx="164" cy="114" r="2.8" fill="#FFE9AE" opacity="0.7"/><circle cx="216" cy="218" r="10.08" fill="#F5B942" opacity="0.5" filter="url(#f-blurS)"/><circle cx="216" cy="218" r="4.2" fill="#FFF3C9" opacity="1"/><circle cx="246" cy="352" r="6.72" fill="#F5B942" opacity="0.28" filter="url(#f-blurS)"/><circle cx="246" cy="352" r="2.8" fill="#FFE9AE" opacity="0.7"/><circle cx="218" cy="472" r="6.72" fill="#F5B942" opacity="0.28" filter="url(#f-blurS)"/><circle cx="218" cy="472" r="2.8" fill="#FFE9AE" opacity="0.7"/><circle cx="132" cy="512" r="10.08" fill="#F5B942" opacity="0.5" filter="url(#f-blurS)"/><circle cx="132" cy="512" r="4.2" fill="#FFF3C9" opacity="1"/><circle cx="62" cy="462" r="6.72" fill="#F5B942" opacity="0.28" filter="url(#f-blurS)"/><circle cx="62" cy="462" r="2.8" fill="#FFE9AE" opacity="0.7"/><circle cx="44" cy="348" r="10.08" fill="#F5B942" opacity="0.5" filter="url(#f-blurS)"/><circle cx="44" cy="348" r="4.2" fill="#FFF3C9" opacity="1"/><circle cx="56" cy="236" r="10.08" fill="#F5B942" opacity="0.5" filter="url(#f-blurS)"/><circle cx="56" cy="236" r="4.2" fill="#FFF3C9" opacity="1"/><circle cx="58" cy="100" r="6.72" fill="#F5B942" opacity="0.28" filter="url(#f-blurS)"/><circle cx="58" cy="100" r="2.8" fill="#FFE9AE" opacity="0.7"/><circle cx="92" cy="52" r="6.72" fill="#F5B942" opacity="0.28" filter="url(#f-blurS)"/><circle cx="92" cy="52" r="2.8" fill="#FFE9AE" opacity="0.7"/><circle cx="140" cy="130" r="10.08" fill="#F5B942" opacity="0.5" filter="url(#f-blurS)"/><circle cx="140" cy="130" r="4.2" fill="#FFF3C9" opacity="1"/><circle cx="105" cy="215" r="6.72" fill="#F5B942" opacity="0.28" filter="url(#f-blurS)"/><circle cx="105" cy="215" r="2.8" fill="#FFE9AE" opacity="0.7"/><circle cx="175" cy="205" r="6.72" fill="#F5B942" opacity="0.28" filter="url(#f-blurS)"/><circle cx="175" cy="205" r="2.8" fill="#FFE9AE" opacity="0.7"/><circle cx="135" cy="290" r="6.72" fill="#F5B942" opacity="0.28" filter="url(#f-blurS)"/><circle cx="135" cy="290" r="2.8" fill="#FFE9AE" opacity="0.7"/><circle cx="200" cy="330" r="10.08" fill="#F5B942" opacity="0.5" filter="url(#f-blurS)"/><circle cx="200" cy="330" r="4.2" fill="#FFF3C9" opacity="1"/><circle cx="95" cy="330" r="6.72" fill="#F5B942" opacity="0.28" filter="url(#f-blurS)"/><circle cx="95" cy="330" r="2.8" fill="#FFE9AE" opacity="0.7"/><circle cx="150" cy="400" r="10.08" fill="#F5B942" opacity="0.5" filter="url(#f-blurS)"/><circle cx="150" cy="400" r="4.2" fill="#FFF3C9" opacity="1"/><circle cx="105" cy="455" r="10.08" fill="#F5B942" opacity="0.5" filter="url(#f-blurS)"/><circle cx="105" cy="455" r="4.2" fill="#FFF3C9" opacity="1"/><circle cx="175" cy="455" r="6.72" fill="#F5B942" opacity="0.28" filter="url(#f-blurS)"/><circle cx="175" cy="455" r="2.8" fill="#FFE9AE" opacity="0.7"/></g>
<g transform="translate(163,318) rotate(-12)" filter="url(#f-cardShadow)">
  <rect x="-75" y="-106" width="150" height="212" rx="18" fill="url(#f-cardOrange)"/>
  <rect x="-75" y="-106" width="150" height="212" rx="18" fill="url(#f-sheen)"/>
  <rect x="-75" y="-106" width="150" height="212" rx="18" fill="none" stroke="#FFC98F" stroke-opacity="0.35" stroke-width="2"/>
  <ellipse rx="32" ry="39" fill="none" stroke="url(#f-letterGold)" stroke-width="17"/>
</g>
<g transform="translate(262,336) rotate(9)" filter="url(#f-cardShadow)">
  <rect x="-75" y="-106" width="150" height="212" rx="18" fill="url(#f-cardNavy)"/>
  <rect x="-75" y="-106" width="150" height="212" rx="18" fill="url(#f-sheen)"/>
  <rect x="-75" y="-106" width="150" height="212" rx="18" fill="none" stroke="url(#f-letterGold)" stroke-width="3"/>
  <path d="M21.4,-29 A32,39 0 1 0 21.4,29.0" fill="none" stroke="url(#f-letterGold)" stroke-width="17"/>
</g></g>
<g transform="translate(91.0,818) scale(1.3)"><path d="M67.38-61.57Q72.51-56.88 75.51-50.24Q78.52-43.60 78.52-35.11Q78.52-27.54 75.98-20.70Q73.44-13.87 68.65-8.94Q63.62-3.81 56.84-0.95Q50.05 1.90 40.67 1.90Q33.11 1.90 26.37-0.59Q19.63-3.08 14.50-7.81Q9.42-12.45 6.45-19.09Q3.47-25.73 3.47-33.89Q3.47-42.38 6.37-49.29Q9.28-56.20 14.36-61.13Q19.38-65.97 26.29-68.58Q33.20-71.19 41.02-71.19Q48.78-71.19 55.59-68.65Q62.40-66.11 67.38-61.57M54.83-12.01Q57.03-16.46 58.01-22.07Q58.98-27.69 58.98-34.77Q58.98-40.77 58.13-46.46Q57.28-52.15 55.22-56.59Q53.13-61.04 49.66-63.72Q46.19-66.41 41.02-66.41Q32.18-66.41 27.59-58.03Q23-49.66 23-34.37Q23-27.88 24-22.12Q25-16.36 27.15-12.06Q29.35-7.71 32.71-5.30Q36.08-2.88 41.02-2.88Q45.85-2.88 49.32-5.32Q52.78-7.76 54.83-12.01M131.01-67.33Q131.01-66.11 130.62-64.65Q130.22-63.18 129.35-62.16Q128.32-60.94 127.05-60.30Q125.78-59.67 123.24-59.67Q119.38-59.67 117.19-62.35Q114.99-65.04 112.50-71.29Q110.55-70.46 109.33-66.99Q108.11-63.53 108.11-52.10L108.11-48.24L121.58-48.24L121.58-42.97L108.20-42.97L108.20-9.33Q108.20-7.42 109.08-6.37Q109.96-5.32 111.38-4.83Q112.55-4.44 114.45-4.08Q116.36-3.71 117.87-3.56L117.87 0L84.91 0L84.91-3.56Q86.18-3.66 87.38-3.81Q88.57-3.96 89.50-4.30Q91.06-4.88 91.63-5.98Q92.19-7.08 92.19-8.89L92.19-42.97L82.28-42.97L82.28-48.24L92.19-48.24Q92.19-53.47 93.70-58.37Q95.21-63.28 98.39-67.14Q101.46-70.95 106.49-73.29Q111.52-75.63 118.31-75.63Q124.37-75.63 127.69-73.34Q131.01-71.04 131.01-67.33M170.31-67.33Q170.31-66.11 169.92-64.65Q169.53-63.18 168.65-62.16Q167.63-60.94 166.36-60.30Q165.09-59.67 162.55-59.67Q158.69-59.67 156.49-62.35Q154.30-65.04 151.81-71.29Q149.85-70.46 148.63-66.99Q147.41-63.53 147.41-52.10L147.41-48.24L160.89-48.24L160.89-42.97L147.51-42.97L147.51-9.33Q147.51-7.42 148.39-6.37Q149.27-5.32 150.68-4.83Q151.86-4.44 153.76-4.08Q155.66-3.71 157.18-3.56L157.18 0L124.22 0L124.22-3.56Q125.49-3.66 126.68-3.81Q127.88-3.96 128.81-4.30Q130.37-4.88 130.93-5.98Q131.49-7.08 131.49-8.89L131.49-42.97L121.58-42.97L121.58-48.24L131.49-48.24Q131.49-53.47 133.01-58.37Q134.52-63.28 137.70-67.14Q140.77-70.95 145.80-73.29Q150.83-75.63 157.62-75.63Q163.67-75.63 166.99-73.34Q170.31-71.04 170.31-67.33M212.21-14.36L215.92-11.67Q214.21-8.89 211.79-6.42Q209.38-3.96 206.30-2.20Q203.03-0.34 199.68 0.61Q196.34 1.56 191.99 1.56Q184.77 1.56 179.52-0.49Q174.27-2.54 170.85-6.01Q167.43-9.47 165.75-14.18Q164.06-18.90 164.06-24.41Q164.06-29.39 165.89-33.96Q167.72-38.53 171.09-42.09Q174.41-45.56 179.47-47.71Q184.52-49.85 190.77-49.85Q197.61-49.85 202-48.19Q206.40-46.53 209.28-43.60Q212.06-40.82 213.33-37.04Q214.60-33.25 214.60-29.10L214.60-25.93L181.59-25.93Q181.59-15.92 185.45-10.69Q189.31-5.47 197.71-5.47Q202.29-5.47 205.96-7.98Q209.62-10.50 212.21-14.36M181.59-30.03L197.27-30.22Q197.27-33.15 196.97-36.23Q196.68-39.31 195.95-41.26Q195.12-43.55 193.68-44.73Q192.24-45.90 190.04-45.90Q186.28-45.90 184.03-42.09Q181.79-38.28 181.59-30.03M269.24-39.50Q269.24-35.79 266.94-32.98Q264.65-30.18 260.89-30.18Q257.32-30.18 254.86-31.98Q252.39-33.79 252.39-37.30Q252.39-39.01 252.64-39.97Q252.88-40.92 253.08-41.75Q250.83-41.65 248.34-40.19Q245.85-38.72 243.95-36.28L243.95-9.47Q243.95-7.76 244.48-6.64Q245.02-5.52 246.29-4.88Q247.36-4.35 249.78-3.98Q252.20-3.61 253.27-3.56L253.27 0L220.61 0L220.61-3.56Q221.83-3.66 223.07-3.83Q224.32-4 225.20-4.30Q226.76-4.83 227.34-5.96Q227.93-7.08 227.93-8.89L227.93-37.30Q227.93-39.06 227.10-40.45Q226.27-41.85 225.10-42.68Q224.22-43.26 222.88-43.65Q221.53-44.04 219.92-44.19L219.92-47.75L243.21-49.02L243.95-48.29L243.95-41.21L244.14-41.21Q247.51-45.12 251.29-47.34Q255.08-49.56 259.18-49.56Q263.72-49.56 266.48-46.75Q269.24-43.95 269.24-39.50" fill="url(#f-tGold)"/></g>
<g transform="translate(475.5,818) scale(1.3)"><path d="M39.70 1.86Q32.08 1.86 25.44-0.61Q18.80-3.08 13.87-7.76Q9.03-12.35 6.25-19.12Q3.47-25.88 3.47-33.98Q3.47-42.04 6.27-48.90Q9.08-55.76 14.16-60.79Q19.14-65.72 26.12-68.43Q33.11-71.14 41.06-71.14Q46.83-71.14 51.56-69.75Q56.30-68.36 59.57-66.60L62.60-69.29L66.85-69.29L67.29-43.99L62.99-43.99Q59.33-55.57 54.20-60.99Q49.07-66.41 41.70-66.41Q32.52-66.41 27.73-58.33Q22.95-50.24 22.95-35.64Q22.95-27.39 24.58-21.56Q26.22-15.72 28.86-12.16Q31.69-8.45 35.55-6.71Q39.40-4.98 44.09-4.98Q50.93-4.98 56.27-8.69Q61.62-12.40 66.02-19.92L70.21-17.38Q68.12-13.09 65.43-9.69Q62.74-6.30 59.23-3.86Q55.37-1.17 50.71 0.34Q46.04 1.86 39.70 1.86M123.14-14.36L126.86-11.67Q125.15-8.89 122.73-6.42Q120.31-3.96 117.24-2.20Q113.96-0.34 110.62 0.61Q107.28 1.56 102.93 1.56Q95.70 1.56 90.45-0.49Q85.21-2.54 81.79-6.01Q78.37-9.47 76.68-14.18Q75-18.90 75-24.41Q75-29.39 76.83-33.96Q78.66-38.53 82.03-42.09Q85.35-45.56 90.41-47.71Q95.46-49.85 101.71-49.85Q108.54-49.85 112.94-48.19Q117.33-46.53 120.21-43.60Q123-40.82 124.27-37.04Q125.54-33.25 125.54-29.10L125.54-25.93L92.53-25.93Q92.53-15.92 96.39-10.69Q100.24-5.47 108.64-5.47Q113.23-5.47 116.89-7.98Q120.56-10.50 123.14-14.36M92.53-30.03L108.20-30.22Q108.20-33.15 107.91-36.23Q107.62-39.31 106.88-41.26Q106.05-43.55 104.61-44.73Q103.17-45.90 100.98-45.90Q97.22-45.90 94.97-42.09Q92.72-38.28 92.53-30.03M186.72-48.44L186.72-44.87Q184.52-44.53 182.45-43.21Q180.37-41.89 179-39.11Q174.80-30.22 170.36-20.19Q165.92-10.16 160.50 1.51Q157.47 8.06 154.64 11.96Q151.81 15.87 149.32 17.97Q146.97 19.92 144.68 20.80Q142.38 21.68 140.04 21.68Q135.40 21.68 132.54 19.09Q129.69 16.50 129.69 13.28Q129.69 11.91 130 10.74Q130.32 9.57 131.35 8.30Q132.13 7.23 133.76 6.47Q135.40 5.71 137.45 5.71Q140.19 5.71 142.68 7.62Q145.17 9.52 147.85 12.89Q149.46 11.28 151.83 8.08Q154.20 4.88 155.32 1.51Q149.51-10.69 145.02-19.65Q140.53-28.61 134.96-39.65Q133.74-41.99 131.69-43.29Q129.64-44.58 127.34-44.87L127.34-48.44L157.23-48.44L157.23-44.87Q155.57-44.82 153.39-44.14Q151.22-43.46 151.22-42.38Q151.22-41.99 151.37-41.53Q151.51-41.06 151.90-40.19Q153.56-36.77 156.62-30.69Q159.67-24.61 163.72-16.46Q166.75-23.39 168.87-28.39Q171-33.40 173-38.23Q173.49-39.45 173.56-40.16Q173.63-40.87 173.63-41.11Q173.63-41.99 172.78-42.65Q171.92-43.31 170.75-43.80Q169.53-44.29 168.41-44.53Q167.29-44.78 166.55-44.87L166.55-48.44L186.72-48.44M217.48-3.56L217.48 0L186.87 0L186.87-3.56Q188.13-3.66 189.33-3.81Q190.53-3.96 191.46-4.30Q193.02-4.88 193.58-5.98Q194.14-7.08 194.14-8.89L194.14-62.99Q194.14-64.84 193.38-66.43Q192.63-68.02 191.36-68.85Q190.38-69.48 188.40-70.07Q186.43-70.65 184.91-70.75L184.91-74.32L209.47-75.59L210.21-74.80L210.21-9.52Q210.21-7.71 210.84-6.59Q211.47-5.47 212.89-4.83Q213.87-4.39 214.94-4.05Q216.02-3.71 217.48-3.56M272.02-42.68Q275.63-39.31 277.54-34.62Q279.44-29.93 279.44-24.46Q279.44-19.04 277.56-14.23Q275.68-9.42 272.07-6.01Q268.21-2.34 262.87-0.39Q257.52 1.56 250.63 1.56Q244.68 1.56 239.67-0.15Q234.67-1.86 230.81-5.27Q227.10-8.54 224.95-13.35Q222.80-18.16 222.80-24.12Q222.80-29.98 224.68-34.55Q226.56-39.11 230.32-42.68Q233.94-46.09 239.23-47.97Q244.53-49.85 251.07-49.85Q257.91-49.85 263.11-47.97Q268.31-46.09 272.02-42.68M259.52-8.84Q260.60-11.57 261.11-15.48Q261.62-19.38 261.62-24.56Q261.62-27.98 261.13-32.37Q260.64-36.77 259.67-39.31Q258.50-42.38 256.42-44.14Q254.35-45.90 251.17-45.90Q247.71-45.90 245.63-43.99Q243.55-42.09 242.43-39.06Q241.41-36.28 241.02-32.54Q240.63-28.81 240.63-24.76Q240.63-19.43 240.97-15.94Q241.31-12.45 242.63-8.94Q243.75-5.91 245.85-4.15Q247.95-2.39 251.17-2.39Q254.10-2.39 256.20-4.03Q258.30-5.66 259.52-8.84M350.20-3.56L350.20 0L320.80 0L320.80-3.56Q321.73-3.66 323.05-3.81Q324.37-3.96 325.05-4.30Q326.07-4.83 326.51-5.86Q326.95-6.88 326.95-8.89L326.95-31.74Q326.95-36.72 325.12-39.23Q323.29-41.75 319.73-41.75Q317.77-41.75 316.09-41.16Q314.40-40.58 312.79-39.45Q311.38-38.48 310.52-37.45Q309.67-36.43 309.08-35.64L309.08-9.42Q309.08-7.71 309.57-6.57Q310.06-5.42 311.18-4.83Q311.96-4.39 313.13-4.05Q314.31-3.71 315.43-3.56L315.43 0L285.74 0L285.74-3.56Q286.96-3.66 288.21-3.83Q289.45-4 290.33-4.30Q291.89-4.83 292.48-5.96Q293.07-7.08 293.07-8.89L293.07-37.30Q293.07-38.82 292.29-40.28Q291.50-41.75 290.23-42.68Q289.36-43.26 288.01-43.65Q286.67-44.04 285.06-44.19L285.06-47.75L308.35-49.02L309.08-48.29L309.08-41.21L309.28-41.21Q310.64-42.43 312.60-44.14Q314.55-45.85 316.21-46.92Q318.02-48.10 320.95-48.93Q323.88-49.76 327.20-49.76Q335.16-49.76 339.14-45.24Q343.12-40.72 343.12-33.25L343.12-9.33Q343.12-7.52 343.65-6.45Q344.19-5.37 345.65-4.74Q346.44-4.39 347.58-4.05Q348.73-3.71 350.20-3.56" fill="url(#f-tGreen)"/></g>
<g transform="translate(183.0,904) scale(0.34)"><path d="M5.91-2.83L5.91-12.50Q7.57-11.04 9.89-9.86Q12.21-8.69 14.77-7.89Q17.33-7.08 19.92-6.64Q22.51-6.20 24.71-6.20Q32.28-6.20 36.01-9.01Q39.75-11.82 39.75-17.09Q39.75-19.92 38.50-22.02Q37.26-24.12 35.06-25.85Q32.86-27.59 29.86-29.17Q26.86-30.76 23.39-32.52Q19.73-34.37 16.55-36.28Q13.38-38.18 11.04-40.48Q8.69-42.77 7.35-45.68Q6.01-48.58 6.01-52.49Q6.01-57.28 8.11-60.82Q10.21-64.36 13.62-66.65Q17.04-68.95 21.41-70.07Q25.78-71.19 30.32-71.19Q40.67-71.19 45.41-68.70L45.41-59.47Q39.21-63.77 29.49-63.77Q26.81-63.77 24.12-63.21Q21.44-62.65 19.34-61.38Q17.24-60.11 15.92-58.11Q14.60-56.10 14.60-53.22Q14.60-50.54 15.60-48.58Q16.60-46.63 18.55-45.02Q20.51-43.41 23.32-41.89Q26.12-40.38 29.79-38.57Q33.54-36.72 36.91-34.67Q40.28-32.62 42.82-30.13Q45.36-27.64 46.85-24.61Q48.34-21.58 48.34-17.68Q48.34-12.50 46.31-8.91Q44.29-5.32 40.84-3.08Q37.40-0.83 32.91 0.17Q28.42 1.17 23.44 1.17Q21.78 1.17 19.34 0.90Q16.89 0.63 14.36 0.12Q11.82-0.39 9.55-1.15Q7.28-1.90 5.91-2.83M117.37-21.04L130.50 0L120.73 0L109.02-19.63Q107.40-22.36 105.89-24.29Q104.38-26.22 102.79-27.44Q101.20-28.66 99.37-29.22Q97.54-29.79 95.25-29.79L88.51-29.79L88.51 0L80.30 0L80.30-70.02L101.20-70.02Q105.79-70.02 109.67-68.87Q113.56-67.72 116.41-65.38Q119.27-63.04 120.88-59.55Q122.49-56.05 122.49-51.37Q122.49-47.71 121.39-44.65Q120.29-41.60 118.27-39.21Q116.24-36.82 113.39-35.13Q110.53-33.45 106.96-32.52L106.96-32.32Q108.72-31.54 110.02-30.54Q111.31-29.54 112.48-28.17Q113.65-26.81 114.80-25.07Q115.95-23.34 117.37-21.04M99.74-62.60L88.51-62.60L88.51-37.21L99.64-37.21Q102.72-37.21 105.33-38.13Q107.94-39.06 109.85-40.80Q111.75-42.53 112.82-45.04Q113.90-47.56 113.90-50.68Q113.90-56.30 110.26-59.45Q106.62-62.60 99.74-62.60M166.32-70.02L166.32 0L158.12 0L158.12-70.02L166.32-70.02M284.45-7.42L284.45 0L248.12 0L248.12-70.02L256.33-70.02L256.33-7.42L284.45-7.42M340.44-70.02L367.39 0L358.31 0L350.89-19.63L321.20-19.63L314.22 0L305.09 0L331.94-70.02L340.44-70.02M323.94-27L348.20-27L337.22-56.84Q336.68-58.30 336.14-61.52L335.95-61.52Q335.46-58.54 334.82-56.84L323.94-27M452.14-70.02L452.14 0L442.08 0L406.05-55.81Q404.68-57.91 403.80-60.21L403.51-60.21Q403.90-57.96 403.90-50.59L403.90 0L395.70 0L395.70-70.02L406.34-70.02L441.40-15.09Q443.60-11.67 444.23-10.40L444.43-10.40Q443.94-13.43 443.94-20.70L443.94-70.02L452.14-70.02M505.10-36.43L537.23 0L525.80 0L498.75-32.03Q497.24-33.84 496.90-34.47L496.70-34.47L496.70 0L488.50 0L488.50-70.02L496.70-70.02L496.70-37.11L496.90-37.11Q497.58-38.18 498.75-39.50L524.93-70.02L535.13-70.02L505.10-36.43M591.75-70.02L618.71 0L609.63 0L602.20-19.63L572.52-19.63L565.53 0L556.40 0L583.26-70.02L591.75-70.02M575.25-27L599.52-27L588.53-56.84Q587.99-58.30 587.46-61.52L587.26-61.52Q586.77-58.54 586.14-56.84L575.25-27M648.62-71.19L655.80-71.19L648.96-49.41L643.20-49.41L648.62-71.19M684.64-2.83L684.64-12.50Q686.30-11.04 688.62-9.86Q690.94-8.69 693.50-7.89Q696.06-7.08 698.65-6.64Q701.24-6.20 703.44-6.20Q711.01-6.20 714.74-9.01Q718.48-11.82 718.48-17.09Q718.48-19.92 717.23-22.02Q715.99-24.12 713.79-25.85Q711.59-27.59 708.59-29.17Q705.59-30.76 702.12-32.52Q698.46-34.37 695.28-36.28Q692.11-38.18 689.77-40.48Q687.42-42.77 686.08-45.68Q684.74-48.58 684.74-52.49Q684.74-57.28 686.84-60.82Q688.94-64.36 692.35-66.65Q695.77-68.95 700.14-70.07Q704.51-71.19 709.05-71.19Q719.40-71.19 724.14-68.70L724.14-59.47Q717.94-63.77 708.22-63.77Q705.54-63.77 702.85-63.21Q700.17-62.65 698.07-61.38Q695.97-60.11 694.65-58.11Q693.33-56.10 693.33-53.22Q693.33-50.54 694.33-48.58Q695.33-46.63 697.29-45.02Q699.24-43.41 702.05-41.89Q704.85-40.38 708.52-38.57Q712.28-36.72 715.64-34.67Q719.01-32.62 721.55-30.13Q724.09-27.64 725.58-24.61Q727.07-21.58 727.07-17.68Q727.07-12.50 725.04-8.91Q723.02-5.32 719.58-3.08Q716.13-0.83 711.64 0.17Q707.15 1.17 702.17 1.17Q700.51 1.17 698.07 0.90Q695.63 0.63 693.09 0.12Q690.55-0.39 688.28-1.15Q686.01-1.90 684.64-2.83M822.98 0L804.43 0L804.43-70.02L823.76-70.02Q860.78-70.02 860.78-35.89Q860.78-19.68 850.50-9.84Q840.22 0 822.98 0M823.57-62.60L812.63-62.60L812.63-7.42L823.08-7.42Q836.85-7.42 844.52-14.79Q852.18-22.17 852.18-35.69Q852.18-62.60 823.57-62.60M919.79-70.02L946.74 0L937.66 0L930.24-19.63L900.55-19.63L893.57 0L884.44 0L911.29-70.02L919.79-70.02M903.29-27L927.55-27L916.57-56.84Q916.03-58.30 915.49-61.52L915.30-61.52Q914.81-58.54 914.18-56.84L903.29-27M983.25-70.02L983.25 0L975.05 0L975.05-70.02L983.25-70.02M1055.99-7.42L1055.99 0L1019.66 0L1019.66-70.02L1027.86-70.02L1027.86-7.42L1055.99-7.42M1121.54-70.02L1130.24-70.02L1107.14-25.88L1107.14 0L1098.94 0L1098.94-25.68L1076.43-70.02L1085.75-70.02L1101.43-38.38Q1101.72-37.79 1103.14-34.08L1103.28-34.08Q1103.77-35.74 1105.14-38.38L1121.54-70.02M1231.62 1.17Q1216.72 1.17 1207.76-8.64Q1198.80-18.46 1198.80-34.18Q1198.80-51.07 1207.94-61.13Q1217.07-71.19 1232.79-71.19Q1247.29-71.19 1256.15-61.43Q1265.02-51.66 1265.02-35.89Q1265.02-18.75 1255.93-8.79Q1246.85 1.17 1231.62 1.17M1232.20-63.77Q1221.17-63.77 1214.28-55.81Q1207.40-47.85 1207.40-34.91Q1207.40-21.97 1214.11-14.09Q1220.83-6.20 1231.62-6.20Q1243.14-6.20 1249.78-13.72Q1256.42-21.24 1256.42-34.77Q1256.42-48.63 1249.98-56.20Q1243.53-63.77 1232.20-63.77M1332.33-70.02L1332.33-62.60L1304.99-62.60L1304.99-38.38L1330.28-38.38L1330.28-31.01L1304.99-31.01L1304.99 0L1296.79 0L1296.79-70.02L1332.33-70.02M1399.16-70.02L1399.16-62.60L1371.82-62.60L1371.82-38.38L1397.11-38.38L1397.11-31.01L1371.82-31.01L1371.82 0L1363.61 0L1363.61-70.02L1399.16-70.02M1467.55-7.42L1467.55 0L1430.44 0L1430.44-70.02L1465.99-70.02L1465.99-62.60L1438.64-62.60L1438.64-39.31L1463.94-39.31L1463.94-31.93L1438.64-31.93L1438.64-7.42L1467.55-7.42M1536.09-21.04L1549.22 0L1539.46 0L1527.74-19.63Q1526.13-22.36 1524.61-24.29Q1523.10-26.22 1521.51-27.44Q1519.93-28.66 1518.09-29.22Q1516.26-29.79 1513.97-29.79L1507.23-29.79L1507.23 0L1499.03 0L1499.03-70.02L1519.93-70.02Q1524.52-70.02 1528.40-68.87Q1532.28-67.72 1535.14-65.38Q1537.99-63.04 1539.60-59.55Q1541.21-56.05 1541.21-51.37Q1541.21-47.71 1540.12-44.65Q1539.02-41.60 1536.99-39.21Q1534.96-36.82 1532.11-35.13Q1529.25-33.45 1525.69-32.52L1525.69-32.32Q1527.45-31.54 1528.74-30.54Q1530.03-29.54 1531.21-28.17Q1532.38-26.81 1533.52-25.07Q1534.67-23.34 1536.09-21.04M1518.46-62.60L1507.23-62.60L1507.23-37.21L1518.36-37.21Q1521.44-37.21 1524.05-38.13Q1526.66-39.06 1528.57-40.80Q1530.47-42.53 1531.55-45.04Q1532.62-47.56 1532.62-50.68Q1532.62-56.30 1528.98-59.45Q1525.35-62.60 1518.46-62.60M1573.57-2.83L1573.57-12.50Q1575.23-11.04 1577.55-9.86Q1579.87-8.69 1582.43-7.89Q1585-7.08 1587.58-6.64Q1590.17-6.20 1592.37-6.20Q1599.94-6.20 1603.67-9.01Q1607.41-11.82 1607.41-17.09Q1607.41-19.92 1606.16-22.02Q1604.92-24.12 1602.72-25.85Q1600.52-27.59 1597.52-29.17Q1594.52-30.76 1591.05-32.52Q1587.39-34.37 1584.21-36.28Q1581.04-38.18 1578.70-40.48Q1576.35-42.77 1575.01-45.68Q1573.67-48.58 1573.67-52.49Q1573.67-57.28 1575.77-60.82Q1577.87-64.36 1581.29-66.65Q1584.70-68.95 1589.07-70.07Q1593.44-71.19 1597.98-71.19Q1608.34-71.19 1613.07-68.70L1613.07-59.47Q1606.87-63.77 1597.15-63.77Q1594.47-63.77 1591.78-63.21Q1589.10-62.65 1587-61.38Q1584.90-60.11 1583.58-58.11Q1582.26-56.10 1582.26-53.22Q1582.26-50.54 1583.26-48.58Q1584.26-46.63 1586.22-45.02Q1588.17-43.41 1590.98-41.89Q1593.79-40.38 1597.45-38.57Q1601.21-36.72 1604.58-34.67Q1607.95-32.62 1610.48-30.13Q1613.02-27.64 1614.51-24.61Q1616-21.58 1616-17.68Q1616-12.50 1613.98-8.91Q1611.95-5.32 1608.51-3.08Q1605.06-0.83 1600.57 0.17Q1596.08 1.17 1591.10 1.17Q1589.44 1.17 1587 0.90Q1584.56 0.63 1582.02 0.12Q1579.48-0.39 1577.21-1.15Q1574.94-1.90 1573.57-2.83M1746-70.02L1746 0L1737.79 0L1737.79-31.93L1701.56-31.93L1701.56 0L1693.36 0L1693.36-70.02L1701.56-70.02L1701.56-39.31L1737.79-39.31L1737.79-70.02L1746-70.02M1833.58-70.02L1833.58-28.32Q1833.58 1.17 1806.96 1.17Q1781.48 1.17 1781.48-27.20L1781.48-70.02L1789.68-70.02L1789.68-27.73Q1789.68-6.20 1807.84-6.20Q1825.37-6.20 1825.37-27L1825.37-70.02L1833.58-70.02M1889.47 0L1869.06 0L1869.06-70.02L1888.98-70.02Q1898.06-70.02 1903.38-65.58Q1908.71-61.13 1908.71-54Q1908.71-48.05 1905.48-43.65Q1902.26-39.26 1896.60-37.40L1896.60-37.21Q1903.68-36.38 1907.92-31.86Q1912.17-27.34 1912.17-20.12Q1912.17-11.13 1905.73-5.57Q1899.28 0 1889.47 0M1886.68-62.60L1877.26-62.60L1877.26-39.99L1885.66-39.99Q1892.40-39.99 1896.25-43.24Q1900.11-46.48 1900.11-52.39Q1900.11-62.60 1886.68-62.60M1886.68-32.62L1877.26-32.62L1877.26-7.42L1888.39-7.42Q1895.62-7.42 1899.60-10.84Q1903.58-14.26 1903.58-20.21Q1903.58-32.62 1886.68-32.62" fill="#9FB2D8"/></g>
</svg>
